<svg width="567" height="149" viewBox="0 0 567 149" fill="none" xmlns="http://www.w3.org/2000/svg">
<mask id="path-1-inside-1_283_456" fill="white">
<path d="M88.5278 32.081C98.2752 33.9075 107.364 38.3459 114.76 44.891C122.156 51.4362 127.561 59.825 130.361 69.1026C133.161 78.3802 133.242 88.1738 130.597 97.3684C127.951 106.563 122.684 114.789 115.395 121.111C108.106 127.432 99.0891 131.595 89.3696 133.124C79.6501 134.654 69.619 133.49 60.4182 129.764C51.2173 126.038 43.2165 119.9 37.3264 112.049C31.4364 104.198 27.8938 94.9491 27.102 85.3554L46.4448 84.292C46.9455 90.3595 49.186 96.2089 52.9112 101.174C56.6363 106.14 61.6964 110.022 67.5154 112.378C73.3344 114.735 79.6786 115.471 85.8257 114.503C91.9727 113.536 97.6757 110.903 102.285 106.905C106.895 102.907 110.226 97.7047 111.899 91.8896C113.573 86.0745 113.521 79.8806 111.751 74.013C109.98 68.1454 106.561 62.8399 101.884 58.7005C97.2063 54.561 91.458 51.754 85.2932 50.5989L88.5278 32.081Z"/>
</mask>
<path d="M88.5278 32.081C98.2752 33.9075 107.364 38.3459 114.76 44.891C122.156 51.4362 127.561 59.825 130.361 69.1026C133.161 78.3802 133.242 88.1738 130.597 97.3684C127.951 106.563 122.684 114.789 115.395 121.111C108.106 127.432 99.0891 131.595 89.3696 133.124C79.6501 134.654 69.619 133.49 60.4182 129.764C51.2173 126.038 43.2165 119.9 37.3264 112.049C31.4364 104.198 27.8938 94.9491 27.102 85.3554L46.4448 84.292C46.9455 90.3595 49.186 96.2089 52.9112 101.174C56.6363 106.14 61.6964 110.022 67.5154 112.378C73.3344 114.735 79.6786 115.471 85.8257 114.503C91.9727 113.536 97.6757 110.903 102.285 106.905C106.895 102.907 110.226 97.7047 111.899 91.8896C113.573 86.0745 113.521 79.8806 111.751 74.013C109.98 68.1454 106.561 62.8399 101.884 58.7005C97.2063 54.561 91.458 51.754 85.2932 50.5989L88.5278 32.081Z" stroke="#FD163A" stroke-width="24" mask="url(#path-1-inside-1_283_456)"/>
<rect x="65.4587" y="20.7805" width="28.0537" height="68.5757" fill="#13255B"/>
<rect x="17.6635" y="89.3563" width="28.0537" height="68.5757" transform="rotate(-90 17.6635 89.3563)" fill="#13255B"/>
<rect y="19.697" width="27.8558" height="85.6828" transform="rotate(-45 0 19.697)" fill="#13255B"/>
<path d="M152.284 117V47.1818H200.966V60.8864H169.159V75.2045H198.477V88.9432H169.159V103.295H200.966V117H152.284ZM249.273 68.1136C249.045 65.6136 248.034 63.6705 246.239 62.2841C244.466 60.875 241.932 60.1705 238.636 60.1705C236.455 60.1705 234.636 60.4545 233.182 61.0227C231.727 61.5909 230.636 62.375 229.909 63.375C229.182 64.3523 228.807 65.4773 228.784 66.75C228.739 67.7955 228.943 68.7159 229.398 69.5114C229.875 70.3068 230.557 71.0114 231.443 71.625C232.352 72.2159 233.443 72.7386 234.716 73.1932C235.989 73.6477 237.42 74.0455 239.011 74.3864L245.011 75.75C248.466 76.5 251.511 77.5 254.148 78.75C256.807 80 259.034 81.4886 260.83 83.2159C262.648 84.9432 264.023 86.9318 264.955 89.1818C265.886 91.4318 266.364 93.9545 266.386 96.75C266.364 101.159 265.25 104.943 263.045 108.102C260.841 111.261 257.67 113.682 253.534 115.364C249.42 117.045 244.455 117.886 238.636 117.886C232.795 117.886 227.705 117.011 223.364 115.261C219.023 113.511 215.648 110.852 213.239 107.284C210.83 103.716 209.591 99.2045 209.523 93.75H225.682C225.818 96 226.42 97.875 227.489 99.375C228.557 100.875 230.023 102.011 231.886 102.784C233.773 103.557 235.955 103.943 238.432 103.943C240.705 103.943 242.636 103.636 244.227 103.023C245.841 102.409 247.08 101.557 247.943 100.466C248.807 99.375 249.25 98.125 249.273 96.7159C249.25 95.3977 248.841 94.2727 248.045 93.3409C247.25 92.3864 246.023 91.5682 244.364 90.8864C242.727 90.1818 240.636 89.5341 238.091 88.9432L230.795 87.2386C224.75 85.8523 219.989 83.6136 216.511 80.5227C213.034 77.4091 211.307 73.2045 211.33 67.9091C211.307 63.5909 212.466 59.8068 214.807 56.5568C217.148 53.3068 220.386 50.7727 224.523 48.9545C228.659 47.1364 233.375 46.2273 238.67 46.2273C244.08 46.2273 248.773 47.1477 252.75 48.9886C256.75 50.8068 259.852 53.3636 262.057 56.6591C264.261 59.9545 265.386 63.7727 265.432 68.1136H249.273ZM272.625 60.8864V47.1818H331.636V60.8864H310.466V117H293.83V60.8864H272.625ZM339.878 47.1818H360.776L378.503 90.4091H379.321L397.048 47.1818H417.946V117H401.514V74.1136H400.935L384.162 116.557H373.662L356.889 73.875H356.31V117H339.878V47.1818ZM443.574 117H425.438L448.994 47.1818H471.46L495.017 117H476.881L460.483 64.7727H459.938L443.574 117ZM441.153 89.5227H479.062V102.341H441.153V89.5227ZM562.628 72.4773H545.582C545.355 70.7273 544.889 69.1477 544.185 67.7386C543.48 66.3295 542.548 65.125 541.389 64.125C540.23 63.125 538.855 62.3636 537.264 61.8409C535.696 61.2955 533.957 61.0227 532.048 61.0227C528.662 61.0227 525.741 61.8523 523.287 63.5114C520.855 65.1705 518.98 67.5682 517.662 70.7045C516.366 73.8409 515.719 77.6364 515.719 82.0909C515.719 86.7273 516.378 90.6136 517.696 93.75C519.037 96.8636 520.912 99.2159 523.321 100.807C525.753 102.375 528.628 103.159 531.946 103.159C533.81 103.159 535.503 102.92 537.026 102.443C538.571 101.966 539.923 101.273 541.082 100.364C542.264 99.4318 543.23 98.3068 543.98 96.9886C544.753 95.6477 545.287 94.1364 545.582 92.4545L562.628 92.5568C562.332 95.6477 561.435 98.6932 559.935 101.693C558.457 104.693 556.423 107.432 553.832 109.909C551.241 112.364 548.082 114.318 544.355 115.773C540.651 117.227 536.401 117.955 531.605 117.955C525.287 117.955 519.628 116.568 514.628 113.795C509.651 111 505.719 106.932 502.832 101.591C499.946 96.25 498.503 89.75 498.503 82.0909C498.503 74.4091 499.969 67.8977 502.901 62.5568C505.832 57.2159 509.798 53.1591 514.798 50.3864C519.798 47.6136 525.401 46.2273 531.605 46.2273C535.832 46.2273 539.741 46.8182 543.332 48C546.923 49.1591 550.082 50.8636 552.81 53.1136C555.537 55.3409 557.753 58.0795 559.457 61.3295C561.162 64.5795 562.219 68.2955 562.628 72.4773Z" fill="#13255B"/>
</svg>
